<svg width="22" height="22" viewBox="0 0 22 22" fill="none" xmlns="http://www.w3.org/2000/svg">
<g clip-path="url(#clip0_1_180)">
<path d="M11 22C9.9 22 8.87333 21.8533 7.84667 21.56C8.28667 20.9 8.72667 20.0933 8.94667 19.2133C9.09333 18.7 9.68 16.2067 9.68 16.2067C10.0467 16.94 11.1467 17.6 12.3933 17.6C15.9133 17.6 18.3333 14.3733 18.3333 10.0467C18.3333 6.82 15.5467 3.74 11.3667 3.74C6.16 3.66667 3.59333 7.40667 3.59333 10.56C3.59333 12.4667 4.32667 14.1533 5.86667 14.74C6.08667 14.8133 6.38 14.74 6.45333 14.4467C6.52667 14.3 6.6 13.7867 6.67333 13.5667C6.74667 13.2733 6.67333 13.2 6.52667 12.98C6.08667 12.4667 5.79333 11.8067 5.79333 10.78C5.79333 7.99333 7.84667 5.5 11.22 5.5C14.1533 5.5 15.7667 7.33333 15.7667 9.75333C15.7667 12.9067 14.3733 15.62 12.2467 15.62C11.0733 15.62 10.2667 14.6667 10.4867 13.4933C10.8533 12.1 11.44 10.56 11.44 9.60667C11.44 8.72667 10.9267 7.92 9.97333 7.92C8.8 7.92 7.84667 9.16667 7.84667 10.78C7.84667 11.8067 8.21333 12.54 8.21333 12.54C8.21333 12.54 6.96667 17.6 6.82 18.5533C6.6 19.36 6.52667 20.3133 6.6 21.12C2.71333 19.36 0 15.4733 0 11C0 4.91333 4.91333 0 11 0C17.0867 0 22 4.91333 22 11C22 17.0867 17.0867 22 11 22Z" fill="black"/>
</g>
<defs>
<clipPath id="clip0_1_180">
<rect width="22" height="22" fill="white"/>
</clipPath>
</defs>
</svg>
