<svg width="22" height="22" viewBox="0 0 22 22" fill="none" xmlns="http://www.w3.org/2000/svg">
<g clip-path="url(#clip0_1_175)">
<path d="M22 11C22 17.0867 17.0867 22 11 22C4.91333 22 0 17.0867 0 11C0 4.91333 4.91333 0 11 0C17.0867 0 22 4.91333 22 11ZM8.28667 5.72C8.28667 4.84 7.55333 4.10667 6.45333 4.10667C5.35333 4.10667 4.62 4.76667 4.62 5.72C4.62 6.6 5.35333 7.33333 6.45333 7.33333C7.55333 7.33333 8.28667 6.6 8.28667 5.72ZM7.77333 8.72667H5.06V16.5H7.84667V8.72667H7.77333ZM17.8933 12.3933C17.8933 9.9 16.6467 8.28667 14.6667 8.28667C13.5667 8.28667 12.76 8.94667 12.3933 9.97333L12.32 8.8H9.53333C9.53333 9.09333 9.60667 10.6333 9.60667 10.6333V16.5733H12.3933V12.4667C12.3933 11.3667 12.9067 10.6333 13.7133 10.6333C14.52 10.6333 15.1067 11.0733 15.1067 12.4667V16.5733H17.8933V12.3933Z" fill="black"/>
</g>
<defs>
<clipPath id="clip0_1_175">
<rect width="22" height="22" fill="white"/>
</clipPath>
</defs>
</svg>
