<svg width="22" height="22" viewBox="0 0 22 22" fill="none" xmlns="http://www.w3.org/2000/svg">
<g clip-path="url(#clip0_1_170)">
<path fill-rule="evenodd" clip-rule="evenodd" d="M11 0C17.1111 0 22 4.88889 22 11C22 17.1111 17.1111 22 11 22C4.88889 22 0 17.1111 0 11C0 4.88889 4.88889 0 11 0ZM8.18889 4.27778H13.9333C16.1333 4.27778 17.8444 5.98889 17.8444 8.06667V13.8111C17.8444 15.8889 16.1333 17.6 13.9333 17.6H8.18889C5.98889 17.6 4.27778 15.8889 4.27778 13.8111V8.18889C4.27778 5.98889 5.98889 4.27778 8.18889 4.27778ZM11 7.57778C12.9556 7.57778 14.5444 9.16667 14.5444 11.1222C14.5444 13.0778 12.9556 14.6667 11 14.6667C9.04444 14.6667 7.33333 13.0778 7.33333 11.1222C7.33333 9.16667 8.92222 7.57778 11 7.57778ZM11 9.04444C12.1 9.04444 13.0778 10.0222 13.0778 11.1222C13.0778 12.2222 12.1 13.2 11 13.2C9.9 13.2 8.92222 12.2222 8.92222 11.1222C8.92222 10.0222 9.77778 9.04444 11 9.04444ZM14.4222 6.96667C14.7889 6.96667 15.1556 7.21111 15.1556 7.7C15.1556 8.06667 14.9111 8.43333 14.4222 8.43333C14.0556 8.43333 13.6889 8.18889 13.6889 7.7C13.6889 7.21111 14.0556 6.96667 14.4222 6.96667ZM8.8 5.74444H13.3222C15.0333 5.74444 16.3778 7.08889 16.3778 8.8V13.3222C16.3778 15.0333 15.0333 16.3778 13.3222 16.3778H8.8C7.08889 16.3778 5.74444 15.0333 5.74444 13.3222V8.8C5.62222 7.08889 7.08889 5.74444 8.8 5.74444Z" fill="black"/>
</g>
<defs>
<clipPath id="clip0_1_170">
<rect width="22" height="22" fill="white"/>
</clipPath>
</defs>
</svg>
