<svg width="48" height="48" viewBox="0 0 48 48" fill="none" xmlns="http://www.w3.org/2000/svg">
<g clip-path="url(#clip0_1_106)">
<path d="M24 48C37.2548 48 48 37.2548 48 24C48 10.7452 37.2548 0 24 0C10.7452 0 0 10.7452 0 24C0 37.2548 10.7452 48 24 48Z" fill="black"/>
<path d="M29 24H20" stroke="white" stroke-width="2" stroke-linecap="round" stroke-linejoin="round"/>
<path d="M23.2929 18.2929C23.6834 17.9024 24.3166 17.9024 24.7071 18.2929C25.0976 18.6834 25.0976 19.3166 24.7071 19.7071L23.2929 18.2929ZM19 24L18.2929 24.7071C17.9024 24.3166 17.9024 23.6834 18.2929 23.2929L19 24ZM24.7071 28.2929C25.0976 28.6834 25.0976 29.3166 24.7071 29.7071C24.3166 30.0976 23.6834 30.0976 23.2929 29.7071L24.7071 28.2929ZM24.7071 19.7071L19.7071 24.7071L18.2929 23.2929L23.2929 18.2929L24.7071 19.7071ZM19.7071 23.2929L24.7071 28.2929L23.2929 29.7071L18.2929 24.7071L19.7071 23.2929Z" fill="white"/>
</g>
<defs>
<clipPath id="clip0_1_106">
<rect width="48" height="48" fill="white"/>
</clipPath>
</defs>
</svg>
