<svg width="15" height="11" viewBox="0 0 15 11" fill="none" xmlns="http://www.w3.org/2000/svg">
<path d="M13.2803 5.11093L9.53025 2.36093C9.3888 2.26075 9.19935 2.20531 9.0027 2.20656C8.80605 2.20782 8.61794 2.26566 8.47889 2.36763C8.33983 2.46961 8.26095 2.60756 8.25924 2.75176C8.25754 2.89597 8.33313 3.0349 8.46975 3.13863L10.9395 4.94978H2.25C2.05109 4.94978 1.86032 5.00773 1.71967 5.11088C1.57902 5.21402 1.5 5.35392 1.5 5.49978C1.5 5.64565 1.57902 5.78555 1.71967 5.88869C1.86032 5.99184 2.05109 6.04978 2.25 6.04978H10.9395L8.46975 7.86093C8.33313 7.96467 8.25754 8.1036 8.25924 8.24781C8.26095 8.39201 8.33983 8.52996 8.47889 8.63193C8.61794 8.73391 8.80605 8.79175 9.0027 8.793C9.19935 8.79426 9.3888 8.73882 9.53025 8.63863L13.2803 5.88863C13.4209 5.78549 13.4998 5.64562 13.4998 5.49978C13.4998 5.35394 13.4209 5.21407 13.2803 5.11093Z" fill="black"/>
</svg>
