<svg width="22" height="22" viewBox="0 0 22 22" fill="none" xmlns="http://www.w3.org/2000/svg">
<g clip-path="url(#clip0_1_160)">
<path d="M22 11C22 17.0867 17.0867 22 11 22C4.91333 22 0 17.0867 0 11C0 4.91333 4.91333 0 11 0C17.0867 0 22 4.91333 22 11ZM19.2867 6.96667C18.7 7.18667 18.1133 7.40667 17.4533 7.48C18.1133 7.11333 18.5533 6.45333 18.7733 5.72C18.1867 6.08667 17.5267 6.30667 16.7933 6.45333C16.2067 5.86667 15.4 5.42667 14.52 5.42667C12.76 5.42667 11.44 6.82 11.44 8.58C11.44 8.8 11.44 9.09333 11.5133 9.31333C8.94667 9.16667 6.6 7.92 5.06 6.01333C4.84 6.52667 4.62 7.04 4.62 7.62667C4.62 8.72667 5.13333 9.68 6.01333 10.1933C5.5 10.1933 4.98667 10.0467 4.62 9.82667C4.62 11.3667 5.72 12.6133 7.11333 12.9067C6.89333 12.98 6.6 12.98 6.30667 12.98C6.08667 12.98 5.86667 12.98 5.72 12.9067C6.08667 14.1533 7.26 14.96 8.65333 15.0333C7.55333 15.84 6.23333 16.4267 4.76667 16.4267C4.54667 16.4267 4.25333 16.4267 4.03333 16.3533C5.42667 17.2333 7.04 17.7467 8.8 17.7467C14.52 17.7467 17.6733 12.98 17.6733 8.87333V8.43333C18.3333 8.14 18.8467 7.55333 19.2867 6.96667Z" fill="black"/>
</g>
<defs>
<clipPath id="clip0_1_160">
<rect width="22" height="22" fill="white"/>
</clipPath>
</defs>
</svg>
