<svg width="22" height="22" viewBox="0 0 22 22" fill="none" xmlns="http://www.w3.org/2000/svg">
<g clip-path="url(#clip0_1_165)">
<path d="M22 11C22 17.0867 17.0867 22 11 22C4.91333 22 0 17.0867 0 11C0 4.91333 4.91333 0 11 0C17.0867 0 22 4.91333 22 11ZM17.8933 11C17.8933 5.94 17.8933 5.94 11 5.94C4.10667 5.94 4.10667 5.94 4.10667 11C4.10667 16.06 4.10667 16.06 11 16.06C17.8933 16.06 17.8933 16.06 17.8933 11ZM9.16667 8.28667L13.7867 11.0733L9.16667 13.86V8.28667Z" fill="black"/>
</g>
<defs>
<clipPath id="clip0_1_165">
<rect width="22" height="22" fill="white"/>
</clipPath>
</defs>
</svg>
